<?xml version="1.0" encoding="UTF-8" standalone="no"?>
<!-- Created with Inkscape (http://www.inkscape.org/) -->

<svg
   width="256mm"
   height="140mm"
   viewBox="0 0 256 140"
   version="1.1"
   id="svg5"
   xml:space="preserve"
   sodipodi:docname="racetrack-logo7.svg"
   inkscape:export-filename="racetrack-logo-white.png"
   inkscape:export-xdpi="25.4"
   inkscape:export-ydpi="25.4"
   inkscape:version="1.2.2 (b0a8486541, 2022-12-01)"
   xmlns:inkscape="http://www.inkscape.org/namespaces/inkscape"
   xmlns:sodipodi="http://sodipodi.sourceforge.net/DTD/sodipodi-0.dtd"
   xmlns="http://www.w3.org/2000/svg"
   xmlns:svg="http://www.w3.org/2000/svg"><sodipodi:namedview
     id="namedview8"
     pagecolor="#ffffff"
     bordercolor="#666666"
     borderopacity="1.0"
     inkscape:showpageshadow="2"
     inkscape:pageopacity="0.0"
     inkscape:pagecheckerboard="true"
     inkscape:deskcolor="#d1d1d1"
     inkscape:document-units="mm"
     showgrid="false"
     inkscape:zoom="1.0335286"
     inkscape:cx="347.35372"
     inkscape:cy="406.8586"
     inkscape:window-width="2560"
     inkscape:window-height="1374"
     inkscape:window-x="1920"
     inkscape:window-y="0"
     inkscape:window-maximized="1"
     inkscape:current-layer="svg5" /><defs
     id="defs2" /><g
     id="layer1"
     transform="matrix(1.0733767,0,0,1.0733767,-11.464361,-63.314577)"
     inkscape:label="layer1"><path
       style="fill:none;stroke:#ffffff;stroke-width:10.1063;stroke-linecap:round;stroke-linejoin:round;stroke-dasharray:none;stroke-opacity:1"
       d="m 131.61776,101.44636 c 16.96171,-19.348559 41.41863,-36.653268 68.73046,-31.051171 37.72531,7.845509 54.91834,60.899231 28.31563,89.399251 -21.2024,23.52103 -58.23718,23.48945 -81.1446,0.57122 -21.58276,-19.84117 -40.02,-43.31902 -60.651681,-58.36661 -12.063128,-8.79817 -25.416563,-2.643579 -32.910222,7.29993 -6.994408,9.28104 -7.115289,20.56698 -1.194393,28.75825 12.153716,16.81405 28.686479,12.98342 43.957751,-2.25731 4.368075,-4.35934 8.407265,-7.69504 12.805735,-12.02423"
       id="path1186"
       sodipodi:nodetypes="ccccssssc" /><path
       style="fill:none;stroke:#ffffff;stroke-width:10.1063;stroke-linecap:round;stroke-linejoin:round;stroke-dasharray:none;stroke-opacity:1"
       d="m 141.62852,112.89122 c 15.92727,-15.908019 31.66208,-32.383175 55.77693,-27.791553 24.96283,5.213576 42.46892,43.901913 18.27356,66.273293 -19.45643,17.98969 -44.40192,12.37675 -61.81872,-4.23676 C 132.10815,126.3873 119.21783,109.62261 95.245918,90.718903 67.147048,68.56078 28.18917,99.138096 34.298566,131.38021 c 10.84664,36.02083 43.20043,39.58637 62.522086,23.79437 8.351188,-7.18822 14.625838,-13.06391 22.009848,-20.68119"
       id="path1201"
       sodipodi:nodetypes="ccsssccc" /><path
       style="fill:none;stroke:#ffffff;stroke-width:10.1063;stroke-linecap:round;stroke-linejoin:round;stroke-dasharray:none;stroke-opacity:1"
       d="m 151.829,123.67321 c 11.42827,-10.8431 23.56153,-26.552554 41.28243,-23.981885 21.63591,2.717925 28.08815,36.348735 6.10773,45.855705 -17.03276,7.36701 -29.42944,-3.28715 -41.27699,-14.97726 C 135.16902,109.76396 117.3728,82.011142 87.974699,71.063837 69.665465,64.245819 48.82464,71.765036 34.913273,85.948565 22.746058,98.35382 15.961485,115.87103 19.727265,133.16803 c 4.793388,31.9355 40.943718,55.2457 71.625951,41.92761 17.900954,-7.77018 26.305384,-18.1641 38.207344,-29.66616"
       id="path11118"
       sodipodi:nodetypes="ccscsscsc" /></g></svg>
